<?xml version="1.0" encoding="utf-8"?>
<!-- Generator: Adobe Illustrator 16.0.0, SVG Export Plug-In . SVG Version: 6.00 Build 0)  -->
<!DOCTYPE svg PUBLIC "-//W3C//DTD SVG 1.1//EN" "http://www.w3.org/Graphics/SVG/1.1/DTD/svg11.dtd">
<svg version="1.1" id="Warstwa_1" xmlns="http://www.w3.org/2000/svg" xmlns:xlink="http://www.w3.org/1999/xlink" x="0px" y="0px"
	 width="842px" height="595px" viewBox="0 0 842 595" enable-background="new 0 0 842 595" xml:space="preserve">
<path fill-rule="evenodd" clip-rule="evenodd" fill="#083649" d="M253.716,289.934"/>
<g>
	<polygon fill-rule="evenodd" clip-rule="evenodd" fill="#083649" points="215.571,275.15 162.345,240.198 109.121,205.236 
		100.744,245.243 110.395,251.582 146.284,275.15 100.529,298.721 88.217,305.057 79.84,345.064 147.71,310.104 	"/>
	<polygon fill-rule="evenodd" clip-rule="evenodd" fill="#BE141B" points="134.3,275.15 98.413,251.582 62.524,228.009 
		52.652,275.15 42.783,322.291 88.544,298.721 	"/>
</g>
<g>
	<path fill="#083649" d="M266.589,270.507h40.472l7.469-28.799h22.831l-19.361,75.239h-22.83l7.553-29.317H262.25l-7.553,29.317
		h-22.831l19.361-75.239h22.831L266.589,270.507z"/>
	<path fill="#083649" d="M429.409,263.372l-8.105,31.91c-1.864,7.354-5.365,12.802-10.503,16.347
		c-5.138,3.547-12.421,5.318-21.846,5.318h-32.691c-9.426,0-15.764-1.771-19.015-5.318c-3.251-3.545-3.944-8.992-2.078-16.347
		l8.104-31.91c1.865-7.35,5.367-12.798,10.504-16.344c5.138-3.545,12.419-5.319,21.847-5.319h32.688
		c9.427,0,15.765,1.774,19.016,5.319C430.58,250.574,431.273,256.022,429.409,263.372z M394.766,258.832h-14.529
		c-5.363,0-9.126,0.953-11.295,2.853c-2.168,1.904-3.687,4.801-4.557,8.693l-4.661,17.9c-0.518,1.99-0.8,3.695-0.849,5.124
		c-0.05,1.428,0.271,2.618,0.96,3.566c0.688,0.953,1.81,1.666,3.366,2.141c1.553,0.477,3.714,0.715,6.483,0.715h14.528
		c2.68,0,4.93-0.238,6.748-0.715c1.818-0.475,3.334-1.188,4.547-2.141c1.215-0.949,2.168-2.138,2.866-3.566
		c0.697-1.429,1.303-3.134,1.821-5.124l4.661-17.9c0.438-1.902,0.679-3.588,0.725-5.059c0.045-1.469-0.279-2.68-0.967-3.634
		c-0.688-0.948-1.832-1.663-3.43-2.14C399.587,259.072,397.445,258.832,394.766,258.832z"/>
	<path fill="#083649" d="M496.336,258.832l-14.893,58.115h-22.831l14.892-58.115h-31.392l4.469-17.124h85.613l-4.468,17.124H496.336
		z"/>
	<path fill="#083649" d="M622.68,269.209c-1.866,7.352-5.366,12.8-10.505,16.345c-5.137,3.548-12.422,5.319-21.847,5.319h-36.58
		l-6.67,26.074h-22.83l19.36-75.239h59.41c9.426,0,15.766,1.774,19.017,5.319c3.251,3.546,3.943,8.995,2.079,16.344L622.68,269.209z
		 M561.97,258.832l-3.752,14.917h29.056c2.248,0,4.143-0.107,5.681-0.323c1.537-0.215,2.8-0.604,3.789-1.168
		c0.987-0.561,1.765-1.317,2.329-2.27c0.567-0.95,1.044-2.16,1.436-3.632c0.459-1.644,0.691-2.962,0.691-3.957
		c-0.003-0.993-0.349-1.75-1.043-2.271c-0.694-0.519-1.783-0.863-3.268-1.037c-1.487-0.174-3.441-0.26-5.86-0.26H561.97z"/>
	<path fill="#083649" d="M721.792,263.372l-13.734,53.575h-22.829l7.542-29.448h-40.474l-7.542,29.448h-22.829l13.732-53.575
		c1.864-7.35,5.366-12.798,10.505-16.344c5.136-3.545,12.418-5.319,21.845-5.319h32.688c9.426,0,15.767,1.774,19.017,5.319
		C722.964,250.574,723.655,256.022,721.792,263.372z M656.767,270.378h40.472c0.438-1.902,0.68-3.588,0.726-5.059
		c0.044-1.469-0.278-2.68-0.967-3.634c-0.688-0.948-1.831-1.663-3.43-2.14c-1.598-0.473-3.74-0.713-6.419-0.713h-14.529
		c-5.363,0-9.125,0.953-11.296,2.853C659.155,263.589,657.637,266.486,656.767,270.378z"/>
	<path fill="#083649" d="M802.268,241.708h22.83l-7.181,27.631c-1.867,7.352-5.346,12.8-10.44,16.344
		c-5.095,3.548-12.355,5.321-21.782,5.321h-4.928l-6.681,25.943h-22.832l6.682-25.943h-4.929c-9.428,0-15.787-1.773-19.08-5.321
		c-3.294-3.544-4.011-8.992-2.146-16.344l7.184-27.631h22.83l-5.33,20.625c-0.519,1.99-0.802,3.697-0.85,5.125
		c-0.049,1.426,0.273,2.617,0.962,3.567c0.688,0.953,1.811,1.666,3.364,2.14c1.555,0.476,3.716,0.715,6.484,0.715h14.528
		c2.679,0,4.93-0.239,6.748-0.715c1.815-0.474,3.333-1.187,4.547-2.14c1.214-0.95,2.17-2.141,2.865-3.567
		c0.699-1.428,1.303-3.135,1.823-5.125L802.268,241.708z"/>
</g>
</svg>
